<svg width="116" height="208" viewBox="0 0 116 208" fill="none" xmlns="http://www.w3.org/2000/svg">
<path d="M92.074 79.348H98.962V140.602H92.074L86.662 120.676C86.17 118.708 85.596 117.314 84.94 116.494C84.448 115.51 83.382 114.936 81.742 114.772C80.102 114.444 77.314 114.28 73.378 114.28H48.04V172.336C48.04 177.912 48.286 181.274 48.778 182.422C49.27 183.406 50.828 184.062 53.452 184.39L71.902 186.112V193H-0.422V186.112L13.108 184.39C15.732 184.062 17.29 183.406 17.782 182.422C18.274 181.274 18.52 177.912 18.52 172.336V46.384C18.52 40.808 18.274 37.528 17.782 36.544C17.29 35.396 15.732 34.658 13.108 34.33L-0.422 32.608V25.72H116.182V68.032H109.294L101.422 40.726C100.93 38.758 100.356 37.364 99.7 36.544C99.208 35.56 98.142 34.986 96.502 34.822C94.862 34.494 92.074 34.33 88.138 34.33H48.04V105.67H73.378C77.314 105.67 80.102 105.588 81.742 105.424C83.382 105.096 84.448 104.522 84.94 103.702C85.596 102.718 86.17 101.242 86.662 99.274L92.074 79.348Z" fill="#FF0000"/>
<rect x="55" width="10" height="208" fill="#FF0000"/>
<rect x="75" width="10" height="208" fill="#FF0000"/>
</svg>
